<svg width="51" height="51" viewBox="0 0 51 51" fill="none" xmlns="http://www.w3.org/2000/svg">
<path d="M36.7046 5.99314C37.2817 5.12156 38.4369 4.81199 39.3823 5.30857L40.0591 5.67869C46.9765 9.62035 51.3657 16.9862 51.3657 25.1289C51.3656 33.2795 46.9678 40.6514 40.0396 44.5898L39.3608 44.9599C38.4148 45.4556 37.2602 45.1439 36.6841 44.2715L36.5767 44.0898C36.0482 43.0808 36.4378 41.8342 37.4468 41.3056L38.0005 41.0039C43.6548 37.7898 47.2406 31.7779 47.2407 25.1289C47.2407 18.4866 43.6623 12.4795 38.0171 9.26268L37.4644 8.95994C36.4559 8.43025 36.0675 7.18322 36.5972 6.17479L36.7046 5.99314ZM27.0103 6.35838C28.6158 5.30914 30.7797 5.69271 31.9214 7.26072L32.0806 7.499C32.4295 8.06775 32.6157 8.72358 32.6157 9.39451V40.8691C32.6156 42.871 30.9927 44.4941 28.9907 44.4941C28.3206 44.4941 27.6655 44.3081 27.0972 43.9599L26.8599 43.8008L15.4458 35.5049C14.9973 35.1788 14.4564 35.0039 13.9019 35.0039H5.55322C2.6884 35.0039 0.365976 32.6811 0.365723 29.8164V20.4414C0.365723 17.5764 2.68825 15.2539 5.55322 15.2539H13.9312C14.4863 15.2539 15.0273 15.0776 15.4761 14.751L26.8569 6.46385L27.0103 6.35838ZM17.9048 18.0849C16.8659 18.8414 15.6346 19.2843 14.3579 19.3652H14.3423L13.9468 19.3779L13.939 19.3789H5.55322C5.01269 19.3789 4.56505 19.7824 4.49854 20.3047L4.49072 20.4531V29.8164C4.49096 30.3589 4.89821 30.8064 5.42334 30.8701L5.58154 30.8789H13.9019C15.1051 30.8789 16.2826 31.1996 17.314 31.8037L17.5181 31.9287L17.5249 31.9326L17.5308 31.9375L17.8579 32.1592L17.8647 32.164L17.8706 32.1679L28.4907 39.8877V10.376L17.9048 18.0849ZM35.8979 14.2617C36.6678 13.5545 37.8634 13.5308 38.6616 14.2402L38.9468 14.501C41.8607 17.2309 43.5532 21.0457 43.5532 25.1289C43.5531 29.2615 41.8189 33.1171 38.8433 35.8515L38.5513 36.1133C37.7461 36.8144 36.5512 36.7791 35.7886 36.0644L35.6411 35.9121C34.8934 35.0532 34.9836 33.7509 35.8423 33.0029L36.2554 32.623C38.2663 30.6747 39.4281 27.9979 39.4282 25.1289C39.4282 22.2943 38.2943 19.6466 36.3257 17.7031L35.9214 17.3232C35.07 16.5666 34.9929 15.2635 35.7495 14.4121L35.8979 14.2617Z" fill="white" stroke="white"/>
</svg>
